<?xml version="1.0" encoding="UTF-8"?>
<svg width="400px" height="400px" viewBox="0 0 400 400" version="1.1" xmlns="http://www.w3.org/2000/svg" xmlns:xlink="http://www.w3.org/1999/xlink">
    <title>D7B48870-B853-43A6-95A7-3D3499F9BEFB</title>
    <g id="Assets" stroke="none" stroke-width="1" fill="none" fill-rule="evenodd">
        <g id="WEB" transform="translate(-160.000000, -240.000000)">
            <g id="place_holder_playlists" transform="translate(160.000000, 240.000000)">
                <g id="Group">
                    <rect id="Rectangle" fill="#3A3A3A" x="0" y="0" width="400" height="400"></rect>
                    <g id="Icons/Add" transform="translate(134.333333, 120.333333)" fill="#646464">
                        <path d="M42.2666667,22.6044032 L42.2666667,109.919505 L26.6666667,109.919505 C12.3072632,109.919505 0.666666667,120.931421 0.666666667,134.515308 C0.666666667,148.099195 12.3072632,159.111111 26.6666667,159.111111 C41.0260702,159.111111 52.6666667,148.099195 52.6666667,134.515308 L52.6666667,55.0708634 L120.266667,37.8538012 L120.266667,90.2428621 L104.666667,90.2428621 C90.3072632,90.2428621 78.6666667,101.254778 78.6666667,114.838665 C78.6666667,128.422552 90.3072632,139.434469 104.666667,139.434469 C119.02607,139.434469 130.666667,128.422552 130.666667,114.838665 L130.666667,0.222222222 L42.2666667,22.6044032 Z" id="Path"></path>
                    </g>
                </g>
            </g>
        </g>
    </g>
</svg>