<?xml version="1.0" encoding="UTF-8"?>
<svg width="400px" height="400px" viewBox="0 0 400 400" version="1.1" xmlns="http://www.w3.org/2000/svg" xmlns:xlink="http://www.w3.org/1999/xlink">
    <title>2BD0AFED-02D7-4E6C-9611-7D772A3D4781</title>
    <g id="Assets" stroke="none" stroke-width="1" fill="none" fill-rule="evenodd">
        <g id="WEB" transform="translate(-160.000000, -2160.000000)">
            <g id="place_holder_album" transform="translate(160.000000, 2160.000000)">
                <g id="Group">
                    <rect id="Rectangle" fill="#3A3A3A" x="0" y="0" width="400" height="400"></rect>
                    <g id="Icons/Add" transform="translate(120.333333, 120.333333)" fill="#646464">
                        <path d="M135.842373,23.490961 C166.867358,54.5159464 166.867358,104.817386 135.842373,135.842372 C120.943649,150.741095 100.736644,159.111111 79.6666673,159.111111 C58.5966906,159.111111 38.3896853,150.741095 23.4909619,135.842372 C-7.53402346,104.817386 -7.53402346,54.5159464 23.4909619,23.490961 C54.5159473,-7.53402442 104.817387,-7.53402442 135.842373,23.490961 Z M46.7103613,94.9873135 L13.7904646,114.974394 L14.1834478,115.683167 C22.7214747,130.958048 32.7799721,140.911282 44.3589401,145.542869 L44.3589401,145.542869 L64.3460202,112.622972 C55.7241425,107.92013 49.8455895,102.041577 46.7103613,94.9873135 L46.7103613,94.9873135 Z M59.239138,59.2391371 C47.9573251,70.52095 47.9573251,88.8123827 59.239138,100.094196 C70.5209509,111.376008 88.8123836,111.376008 100.094196,100.094196 C111.376009,88.8123827 111.376009,70.52095 100.094196,59.2391371 C88.8123836,47.9573243 70.5209509,47.9573243 59.239138,59.2391371 Z M95.5547455,63.7785881 C104.329489,72.5533314 104.329489,86.7800013 95.5547455,95.5547447 C86.7800022,104.329488 72.5533323,104.329488 63.778589,95.5547447 C55.0038456,86.7800013 55.0038456,72.5533314 63.778589,63.7785881 C72.5533323,55.0038447 86.7800022,55.0038447 95.5547455,63.7785881 Z M74.5597849,74.5597841 C71.7393317,77.3802373 71.7393317,81.9530955 74.5597849,84.7735487 C77.3802381,87.5940019 81.9530963,87.5940019 84.7735495,84.7735487 C87.5940028,81.9530955 87.5940028,77.3802373 84.7735495,74.5597841 C81.9530963,71.7393309 77.3802381,71.7393309 74.5597849,74.5597841 Z M114.611459,14.1533988 L94.6243793,47.0732955 C103.246257,51.7761379 109.12481,57.6546908 112.260038,64.7089544 L112.260038,64.7089544 L145.179935,44.7218743 L144.786952,44.0131011 C136.248925,28.7382201 126.190427,18.784986 114.611459,14.1533988 L114.611459,14.1533988 Z" id="Combined-Shape"></path>
                    </g>
                </g>
            </g>
        </g>
    </g>
</svg>